<svg width="48" height="48" viewBox="0 0 48 48" fill="none" xmlns="http://www.w3.org/2000/svg">
<path d="M24 0C37.2548 0 48 10.7452 48 24C48 37.2548 37.2548 48 24 48C10.7452 48 0 37.2548 0 24C0 10.7452 10.7452 0 24 0ZM16.7881 12C16.2395 12.1273 15.6877 12.2422 15.1416 12.3867C14.461 12.5704 13.9348 12.9823 13.5137 13.543C12.9774 14.2653 12.622 15.0732 12.3379 15.918C12.022 16.8535 11.9166 17.8041 12.0684 18.791C12.2006 19.6629 12.4942 20.4789 12.793 21.3018C13.2852 22.6657 13.8293 24.0026 14.5908 25.2441C15.759 27.1568 17.2044 28.8375 18.8232 30.3779C20.1015 31.59 21.4828 32.6746 23.001 33.5732C24.6737 34.5602 26.4908 35.2121 28.335 35.7803C29.29 36.079 30.2845 36.1594 31.2812 35.9365C32.3783 35.6916 33.4098 35.293 34.333 34.6465C34.6659 34.409 34.9959 34.1147 35.2285 33.7793C35.7844 32.9712 35.9442 32.0307 35.998 31.0732C36.0176 30.733 35.9025 30.4854 35.6162 30.3164C35.0848 29.998 34.5578 29.6645 34.0166 29.3535C33.0076 28.7731 31.9395 28.2907 30.9844 27.6074C30.8963 27.5439 30.7887 27.5001 30.6885 27.4512C30.3285 27.2699 29.9853 27.299 29.6719 27.5635C29.5176 27.6908 29.3588 27.8233 29.2266 27.9727C28.6756 28.5922 28.1413 29.2164 27.5879 29.8311C26.9928 30.4947 26.6942 30.5682 25.9277 30.1348C25.1148 29.6744 24.3089 29.1924 23.5352 28.666C21.527 27.3068 19.9375 25.543 18.6934 23.4688C18.3579 22.9079 18.0542 22.3348 17.748 21.7617C17.5497 21.3871 17.6252 21.0321 17.9189 20.748C18.2961 20.3856 18.698 20.0446 19.085 19.6895C19.5477 19.2659 20.028 18.8519 20.4639 18.4062C20.7697 18.0953 20.7798 17.7037 20.5742 17.3145C20.4738 17.143 20.3705 16.9664 20.2627 16.7949C20.1452 16.6138 20.0056 16.4424 19.9053 16.2539C19.5135 15.5511 19.1462 14.8361 18.7471 14.1406C18.4018 13.5382 18.0363 12.9501 17.6738 12.3623C17.5122 12.0957 17.2629 12.0244 16.9717 12.0488C16.9154 12.0562 16.859 12.0562 16.7881 12Z" fill="#50358F"/>
</svg>
